<?xml version="1.0" encoding="UTF-8"?>
<svg id="Layer_1" data-name="Layer 1" xmlns="http://www.w3.org/2000/svg" viewBox="0 0 100 100">
  <defs>
    <style>
      .cls-1 {
        fill: #80089d;
      }

      .cls-1, .cls-2 {
        stroke-width: 0px;
      }

      .cls-2 {
        fill: #fff;
      }
    </style>
  </defs>
  <circle class="cls-1" cx="50" cy="50" r="50"/>
  <path class="cls-2" d="M52.57,39.6l1.94-2.78c.15-.22.4-.33.68-.32.27.02.5.18.62.43l1.01,2.12,5.31-.69c-1.38-5.42-6.28-9.43-12.13-9.43-6.92,0-12.53,5.61-12.54,12.53v.12l15.11-1.97Z"/>
  <g>
    <path class="cls-2" d="M68.67,67.11l-6.39-2.15c-2.36,4.82-7.23,7.67-12.3,7.67-1.9,0-3.84-.4-5.68-1.24-2.86-1.31-5.18-3.58-6.57-6.39l-6.28,2.11c-3.33,1.18-5.56,4.33-5.58,7.87v1.1c0,.55.45,1,1,1h46.25c.55,0,1-.45,1-1v-1.1c0-3.5-2.17-6.64-5.45-7.87Z"/>
    <path class="cls-2" d="M44.93,70.03c5.95,2.73,12.97.23,15.91-5.55l-2.66-.89c-.44-.16-.93,0-1.2.4-2.62,3.82-7.84,4.8-11.67,2.18-.86-.59-1.59-1.33-2.18-2.18-.26-.39-.75-.55-1.2-.4l-2.77.93c1.25,2.42,3.27,4.37,5.75,5.51Z"/>
  </g>
  <path class="cls-2" d="M62.42,39.83s0,0,0,0l-5.93.77c-.32.04-.63-.13-.77-.42l-.69-1.45-1.4,2c-.12.17-.31.29-.52.31l-15.53,2.03s-.06,0-.1,0v2.56c0,6.92,5.61,12.53,12.53,12.54s12.53-5.61,12.54-12.53v-4.18c0-.55-.05-1.1-.12-1.63ZM44.8,45.64c0-.57.46-1.03,1.03-1.03s1.03.46,1.03,1.03-.46,1.03-1.03,1.03-1.03-.46-1.03-1.03ZM53.58,51.46c-1.05.79-2.32,1.19-3.58,1.19s-2.53-.4-3.58-1.19c-.33-.25-.4-.72-.15-1.05.25-.33.72-.4,1.05-.15,1.58,1.18,3.79,1.18,5.36,0,.33-.25.8-.18,1.05.15.25.33.18.8-.15,1.05ZM54.18,46.67c-.57,0-1.03-.46-1.03-1.03s.46-1.03,1.03-1.03,1.03.46,1.03,1.03-.46,1.03-1.03,1.03Z"/>
</svg>