<svg version="1.1" xmlns="http://www.w3.org/2000/svg" xmlns:xlink="http://www.w3.org/1999/xlink" width="529.000000pt" height="507.000000pt" viewBox="0,0,256,245.34375"><g fill="#8c62a5" fill-rule="nonzero" stroke="none" stroke-width="1" stroke-linecap="butt" stroke-linejoin="miter" stroke-miterlimit="10" stroke-dasharray="" stroke-dashoffset="0" font-family="none" font-weight="none" font-size="none" text-anchor="none" style="mix-blend-mode: normal"><g transform="translate(2.70095,3.80466) scale(0.48393,0.48393)"><g transform="translate(0,507) scale(0.1,-0.1)"><path d="M2985,4492c-93,-44 -152,-124 -170,-229c-9,-56 17,-156 55,-211c17,-23 30,-45 30,-47c0,-3 -19,-29 -43,-58c-23,-28 -55,-73 -70,-99l-27,-47l-44,47c-25,26 -62,56 -83,67c-21,10 -40,20 -41,21c-2,1 6,30 19,63c69,191 -60,386 -266,399c-63,4 -80,1 -134,-23c-76,-34 -131,-93 -160,-169c-65,-174 37,-356 222,-397c66,-14 130,-4 203,33c38,18 47,19 74,8c54,-22 109,-69 130,-109c23,-46 24,-73 7,-115l-13,-30l-21,37c-30,51 -90,79 -172,81c-66,1 -66,1 -69,-28c-13,-109 88,-216 203,-216h27l-7,-57c-5,-32 -11,-87 -14,-121l-6,-64l-60,-25c-33,-13 -109,-35 -170,-49c-60,-14 -134,-36 -163,-51l-54,-25l-91,43c-75,36 -105,44 -162,47c-64,4 -72,7 -96,36l-27,31h-132c-186,0 -170,38 -170,-401c0,-341 1,-355 20,-374c18,-18 33,-20 150,-20c117,0 132,2 150,20c11,11 20,25 20,31c0,8 20,10 63,7c47,-4 134,-31 367,-118c267,-99 313,-113 366,-113c96,1 103,5 574,329c58,39 186,127 285,195c204,140 228,168 206,238c-18,61 -53,86 -121,86c-52,0 -74,-8 -209,-74l-151,-74l-42,39c-25,23 -80,55 -129,77c-48,20 -111,53 -140,72c-29,19 -77,45 -106,57l-53,22v60v61h74c60,0 80,4 103,21c35,26 80,90 88,126c9,36 -22,52 -105,52c-51,1 -73,-4 -102,-22c-28,-18 -38,-20 -38,-10c0,31 34,127 72,203c41,82 141,225 158,225c5,0 21,-5 36,-11c43,-16 138,-13 196,7c36,12 68,33 104,69c189,188 56,505 -211,505c-56,0 -82,-6 -130,-28zM3196,4485c138,-41 225,-207 180,-343c-20,-61 -84,-135 -138,-163c-58,-30 -133,-35 -204,-14c-47,13 -69,27 -111,70c-112,115 -111,268 2,382c77,77 167,99 271,68zM2457,4344c57,-28 106,-83 130,-147c18,-50 15,-156 -6,-203c-96,-210 -388,-222 -493,-19c-26,50 -36,170 -18,217c63,162 232,228 387,152zM2960,3964c0,-4 -22,-34 -49,-68c-125,-158 -200,-366 -204,-571l-2,-90l-27,-3c-27,-3 -28,-2 -28,50c0,82 19,180 37,193c11,8 14,20 10,37c-4,14 2,57 14,98c19,70 19,76 4,116c-19,49 -87,116 -141,139c-36,15 -36,16 -19,35c16,18 19,18 49,3c51,-26 92,-61 121,-103c15,-22 31,-40 34,-40c4,0 15,17 26,37c11,21 46,73 78,115c51,68 61,77 78,68c10,-6 19,-13 19,-16zM2575,3671c44,-25 87,-92 89,-138l1,-38h-45c-89,1 -156,57 -181,148c-8,31 -8,42 3,49c18,12 97,0 133,-21zM2976,3517c12,-12 -18,-67 -57,-101c-41,-38 -90,-52 -144,-42c-45,9 -49,18 -26,63c36,71 78,94 163,90c32,-2 61,-6 64,-10zM1788,3198c17,-17 17,-709 0,-726c-8,-8 -51,-12 -128,-12c-77,0 -120,4 -128,12c-17,17 -17,709 0,726c8,8 51,12 128,12c77,0 120,-4 128,-12zM2770,3195c23,-8 79,-37 123,-64c45,-27 107,-59 137,-72c73,-30 134,-71 138,-91c2,-13 -23,-30 -97,-68c-55,-27 -105,-50 -110,-50c-5,0 -12,11 -15,25c-3,13 -22,36 -42,51c-40,31 -32,30 -339,43l-190,7l-82,39c-46,21 -83,42 -83,47c0,15 48,33 185,69c77,20 165,46 195,57c65,25 122,27 180,7zM2165,3051c218,-107 234,-110 465,-111c182,-1 234,-9 266,-42c48,-48 41,-138 -15,-175c-22,-15 -53,-18 -209,-21c-107,-2 -180,-7 -177,-13c4,-5 83,-9 176,-9c216,0 249,12 281,102c13,36 22,42 296,178c172,85 296,140 313,140c82,0 133,-80 95,-148c-7,-13 -76,-67 -154,-120c-597,-409 -756,-514 -792,-527c-91,-32 -98,-31 -520,125c-162,60 -243,85 -290,89l-65,6l-3,314l-2,313l72,-4c68,-4 87,-11 263,-97z"></path><path d="M3011,4428c-52,-27 -108,-96 -117,-145c-28,-149 60,-272 201,-281c77,-5 120,8 173,53c54,47 76,105 70,188c-5,77 -36,132 -100,174c-58,39 -163,44 -227,11zM3209,4405c64,-32 111,-114 111,-190c0,-53 -44,-131 -91,-162c-37,-24 -52,-28 -114,-28c-63,0 -77,4 -113,29c-46,32 -92,112 -92,160c0,84 50,163 125,198c45,21 126,18 174,-7z"></path><path d="M3121,4348c-1,-9 -14,-21 -31,-27c-24,-8 -30,-16 -30,-40c0,-27 7,-34 50,-56c34,-17 50,-31 50,-45c0,-27 -35,-43 -77,-35c-24,4 -33,3 -28,-4c3,-6 13,-11 21,-11c8,0 19,-10 24,-22c7,-19 9,-19 9,-5c1,11 13,22 31,28c56,20 51,78 -9,101c-22,9 -44,25 -50,36c-9,17 -7,23 11,36c13,9 32,13 47,10c23,-5 24,-4 10,8c-9,7 -18,20 -22,28c-4,12 -6,12 -6,-2z"></path><path d="M2229,4303c-124,-63 -163,-198 -94,-319c88,-152 320,-141 399,18c33,66 34,126 2,194c-56,121 -187,167 -307,107zM2373,4301c192,-45 215,-310 35,-386c-49,-20 -114,-19 -163,4c-171,77 -144,338 39,382c43,10 46,10 89,0z"></path><path d="M2331,4224c-1,-14 -10,-24 -26,-28c-16,-4 -27,-16 -31,-33c-8,-28 4,-42 65,-75c56,-31 31,-86 -34,-75c-21,3 -33,2 -30,-4c4,-5 13,-9 21,-9c8,0 14,-10 15,-22c0,-19 2,-20 7,-5c4,9 22,26 40,37c25,15 32,27 32,50c0,26 -6,33 -47,52c-38,18 -48,28 -48,48c0,23 4,25 43,25c43,0 57,13 23,22c-11,3 -22,12 -24,22c-3,11 -5,10 -6,-5z"></path><path d="M532,1478c-9,-9 -12,-103 -12,-374c0,-199 3,-369 6,-378c5,-13 23,-16 90,-16h84v155c0,85 3,155 8,156c4,0 79,2 167,3c88,2 164,4 168,5c4,0 7,34 5,74l-3,72l-170,5l-170,5v70v70l195,5l195,5v75v75l-275,3c-206,2 -279,-1 -288,-10z"></path><path d="M1224,1477c-3,-8 -4,-43 -2,-78l3,-64l48,-3l47,-3v-235v-234h-50c-57,0 -64,-10 -58,-96l3,-49l198,-3l197,-2v74v75l-52,3l-53,3v230v230l50,5l50,5v75v75l-188,3c-152,2 -188,0 -193,-11z"></path><path d="M1785,1477c-3,-6 -4,-181 -3,-387l3,-375h85h85l5,220l5,220l26,-40c14,-22 52,-83 84,-135c32,-52 82,-135 113,-183l54,-88l82,3l81,3v385v385l-79,3c-56,2 -82,-1 -88,-10c-5,-7 -8,-94 -7,-193c2,-224 1,-237 -10,-231c-5,3 -37,52 -71,108c-114,188 -194,313 -205,320c-18,13 -155,9 -160,-5z"></path><path d="M2564,1477c-3,-8 -4,-43 -2,-78l3,-64l158,-3c93,-1 157,-6 157,-12c0,-6 -74,-113 -165,-239l-165,-229v-71v-71l183,-2c296,-2 390,1 399,15c9,14 11,99 2,121c-5,14 -31,16 -179,16c-96,0 -176,3 -178,8c-3,4 69,110 159,236c173,243 189,275 167,349l-9,32l-262,3c-215,2 -263,0 -268,-11z"></path><path d="M3287,1483c-4,-3 -7,-179 -7,-390v-383h295h295v75v75h-199c-133,0 -202,4 -207,11c-5,9 -8,96 -5,146c1,9 46,13 174,15l172,3v75v75l-172,3l-173,2v70v70l193,2l192,3v75v75l-276,3c-151,1 -278,-1 -282,-5z"></path><path d="M4037,1484c-4,-4 -7,-180 -7,-391v-383h85h85v214c0,118 4,217 8,220c5,3 62,-83 128,-190c165,-270 140,-245 238,-242l81,3l3,365c1,201 0,375 -3,388c-5,22 -9,23 -88,20l-82,-3l-5,-225l-5,-224l-140,224l-140,225l-75,3c-42,1 -79,0 -83,-4z"></path></g></g></g></svg>